<!-- campground_map.svg (original schematic map) -->
<svg width="800" height="520" viewBox="0 0 800 520" xmlns="http://www.w3.org/2000/svg">
  <rect width="800" height="520" fill="#F5F7FA"></rect>
  <text x="20" y="30" font-family="Arial" font-weight="700" font-size="20" fill="#223">
    RV Park — Site Layout (Mock)
  </text>

  <!-- Legend -->
  <rect x="20" y="50" width="220" height="90" rx="8" fill="#FFF" stroke="#CBD5E1"></rect>
  <rect x="30" y="70" width="20" height="12" fill="#D1FAE5"></rect><text x="60" y="80" font-family="Arial" font-size="12">Available</text>
  <rect x="30" y="90" width="20" height="12" fill="#FEE2E2"></rect><text x="60" y="100" font-family="Arial" font-size="12">Reserved</text>
  <rect x="30" y="110" width="20" height="12" fill="#E5E7EB"></rect><text x="60" y="120" font-family="Arial" font-size="12">Out of Service</text>

  <!-- Road -->
  <rect x="140" y="160" width="520" height="40" rx="6" fill="#CBD5E1"></rect>

  <!-- Row A -->
  <text x="150" y="150" font-family="Arial" font-weight="700" font-size="14" fill="#223">Row A</text>
  <g font-family="Arial" font-size="10">
    <rect x="160" y="210" width="60" height="30" fill="#D1FAE5" stroke="#94D3AC"></rect><text x="170" y="230">A1</text>
    <rect x="230" y="210" width="60" height="30" fill="#FEE2E2" stroke="#FCA5A5"></rect><text x="240" y="230">A2</text>
    <rect x="300" y="210" width="60" height="30" fill="#D1FAE5" stroke="#94D3AC"></rect><text x="310" y="230">A3</text>
    <rect x="370" y="210" width="60" height="30" fill="#E5E7EB" stroke="#9CA3AF"></rect><text x="382" y="230">A4</text>
    <rect x="440" y="210" width="60" height="30" fill="#D1FAE5" stroke="#94D3AC"></rect><text x="450" y="230">A5</text>
    <rect x="510" y="210" width="60" height="30" fill="#D1FAE5" stroke="#94D3AC"></rect><text x="520" y="230">A6</text>
  </g>

  <!-- Row B -->
  <text x="150" y="310" font-family="Arial" font-weight="700" font-size="14" fill="#223">Row B</text>
  <g font-family="Arial" font-size="10">
    <rect x="160" y="330" width="60" height="30" fill="#D1FAE5" stroke="#94D3AC"></rect><text x="170" y="350">B1</text>
    <rect x="230" y="330" width="60" height="30" fill="#D1FAE5" stroke="#94D3AC"></rect><text x="240" y="350">B2</text>
    <rect x="300" y="330" width="60" height="30" fill="#FEE2E2" stroke="#FCA5A5"></rect><text x="310" y="350">B3</text>
    <rect x="370" y="330" width="60" height="30" fill="#D1FAE5" stroke="#94D3AC"></rect><text x="382" y="350">B4</text>
    <rect x="440" y="330" width="60" height="30" fill="#E5E7EB" stroke="#9CA3AF"></rect><text x="450" y="350">B5</text>
    <rect x="510" y="330" width="60" height="30" fill="#D1FAE5" stroke="#94D3AC"></rect><text x="520" y="350">B6</text>
  </g>
</svg>
